<mxfile host="app.diagrams.net" agent="Mozilla/5.0 (X11; Linux x86_64) AppleWebKit/537.36 (KHTML, like Gecko) Chrome/138.0.0.0 Safari/537.36 OPR/122.0.0.0" version="28.2.5">
  <diagram name="Page-1" id="al-0wMmkbZiRc-6UFUWg">
    <mxGraphModel dx="1052" dy="647" grid="0" gridSize="10" guides="1" tooltips="1" connect="1" arrows="1" fold="1" page="1" pageScale="1" pageWidth="850" pageHeight="1100" math="0" shadow="0">
      <root>
        <mxCell id="0" />
        <mxCell id="1" parent="0" />
        <mxCell id="B4jJJsxU5oSL0_V1Stmv-22" value="" style="rounded=0;whiteSpace=wrap;html=1;fillColor=#dae8fc;strokeColor=#6c8ebf;" vertex="1" parent="1">
          <mxGeometry x="14" y="415" width="822" height="510" as="geometry" />
        </mxCell>
        <mxCell id="B4jJJsxU5oSL0_V1Stmv-1" value="Customer" style="swimlane;childLayout=stackLayout;horizontal=1;startSize=50;horizontalStack=0;rounded=1;fontSize=14;fontStyle=0;strokeWidth=2;resizeParent=0;resizeLast=1;shadow=0;dashed=0;align=center;arcSize=4;whiteSpace=wrap;html=1;fillStyle=solid;fillColor=#a0522d;strokeColor=#6D1F00;fontColor=#ffffff;" vertex="1" parent="1">
          <mxGeometry x="63" y="492" width="160" height="155" as="geometry" />
        </mxCell>
        <mxCell id="B4jJJsxU5oSL0_V1Stmv-2" value="&lt;div&gt;+customer_id(PK)&lt;/div&gt;+first_name&lt;br&gt;+last_name&lt;br&gt;+email&lt;div&gt;+telephone&lt;/div&gt;&lt;div&gt;+address&lt;/div&gt;" style="align=left;strokeColor=none;fillColor=none;spacingLeft=4;spacingRight=4;fontSize=12;verticalAlign=top;resizable=0;rotatable=0;part=1;html=1;whiteSpace=wrap;" vertex="1" parent="B4jJJsxU5oSL0_V1Stmv-1">
          <mxGeometry y="50" width="160" height="105" as="geometry" />
        </mxCell>
        <mxCell id="B4jJJsxU5oSL0_V1Stmv-3" value="Product" style="swimlane;childLayout=stackLayout;horizontal=1;startSize=50;horizontalStack=0;rounded=1;fontSize=14;fontStyle=0;strokeWidth=2;resizeParent=0;resizeLast=1;shadow=0;dashed=0;align=center;arcSize=4;whiteSpace=wrap;html=1;fillStyle=solid;fillColor=#a0522d;strokeColor=#6D1F00;fontColor=#ffffff;" vertex="1" parent="1">
          <mxGeometry x="616" y="492" width="160" height="155" as="geometry" />
        </mxCell>
        <mxCell id="B4jJJsxU5oSL0_V1Stmv-4" value="+product_id(PK)&lt;br&gt;+name&lt;div&gt;+description&lt;/div&gt;&lt;div&gt;+price&lt;/div&gt;" style="align=left;strokeColor=none;fillColor=none;spacingLeft=4;spacingRight=4;fontSize=12;verticalAlign=top;resizable=0;rotatable=0;part=1;html=1;whiteSpace=wrap;" vertex="1" parent="B4jJJsxU5oSL0_V1Stmv-3">
          <mxGeometry y="50" width="160" height="105" as="geometry" />
        </mxCell>
        <mxCell id="B4jJJsxU5oSL0_V1Stmv-5" value="Shipment" style="swimlane;childLayout=stackLayout;horizontal=1;startSize=50;horizontalStack=0;rounded=1;fontSize=14;fontStyle=0;strokeWidth=2;resizeParent=0;resizeLast=1;shadow=0;dashed=0;align=center;arcSize=4;whiteSpace=wrap;html=1;fillStyle=solid;fillColor=#a0522d;strokeColor=#6D1F00;fontColor=#ffffff;" vertex="1" parent="1">
          <mxGeometry x="616" y="711" width="160" height="120" as="geometry">
            <mxRectangle x="357" y="719" width="94" height="50" as="alternateBounds" />
          </mxGeometry>
        </mxCell>
        <mxCell id="B4jJJsxU5oSL0_V1Stmv-6" value="+shipment_id(PK)&lt;br&gt;+order_id(FK)" style="align=left;strokeColor=none;fillColor=none;spacingLeft=4;spacingRight=4;fontSize=12;verticalAlign=top;resizable=0;rotatable=0;part=1;html=1;whiteSpace=wrap;" vertex="1" parent="B4jJJsxU5oSL0_V1Stmv-5">
          <mxGeometry y="50" width="160" height="70" as="geometry" />
        </mxCell>
        <mxCell id="B4jJJsxU5oSL0_V1Stmv-7" value="Payment" style="swimlane;childLayout=stackLayout;horizontal=1;startSize=50;horizontalStack=0;rounded=1;fontSize=14;fontStyle=0;strokeWidth=2;resizeParent=0;resizeLast=1;shadow=0;dashed=0;align=center;arcSize=4;whiteSpace=wrap;html=1;fillStyle=solid;fillColor=#a0522d;strokeColor=#6D1F00;fontColor=#ffffff;" vertex="1" parent="1">
          <mxGeometry x="63" y="714" width="160" height="132" as="geometry" />
        </mxCell>
        <mxCell id="B4jJJsxU5oSL0_V1Stmv-8" value="+payment_id(PK)&lt;div&gt;+order_id(FK)&lt;br&gt;&lt;div&gt;+payment_status&lt;br&gt;+payment_date&lt;/div&gt;&lt;/div&gt;" style="align=left;strokeColor=none;fillColor=none;spacingLeft=4;spacingRight=4;fontSize=12;verticalAlign=top;resizable=0;rotatable=0;part=1;html=1;whiteSpace=wrap;" vertex="1" parent="B4jJJsxU5oSL0_V1Stmv-7">
          <mxGeometry y="50" width="160" height="82" as="geometry" />
        </mxCell>
        <mxCell id="B4jJJsxU5oSL0_V1Stmv-9" value="Order" style="swimlane;childLayout=stackLayout;horizontal=1;startSize=50;horizontalStack=0;rounded=1;fontSize=14;fontStyle=0;strokeWidth=2;resizeParent=0;resizeLast=1;shadow=0;dashed=0;align=center;arcSize=4;whiteSpace=wrap;html=1;fillStyle=solid;fillColor=#a0522d;strokeColor=#6D1F00;fontColor=#ffffff;" vertex="1" parent="1">
          <mxGeometry x="350" y="492" width="160" height="155" as="geometry" />
        </mxCell>
        <mxCell id="B4jJJsxU5oSL0_V1Stmv-10" value="+order_id(PK)&lt;br&gt;+customer_id(FK)&lt;div&gt;&lt;div&gt;+order_status&lt;/div&gt;&lt;/div&gt;" style="align=left;strokeColor=none;fillColor=none;spacingLeft=4;spacingRight=4;fontSize=12;verticalAlign=top;resizable=0;rotatable=0;part=1;html=1;whiteSpace=wrap;" vertex="1" parent="B4jJJsxU5oSL0_V1Stmv-9">
          <mxGeometry y="50" width="160" height="105" as="geometry" />
        </mxCell>
        <mxCell id="B4jJJsxU5oSL0_V1Stmv-13" value="" style="edgeStyle=entityRelationEdgeStyle;fontSize=12;html=1;endArrow=ERoneToMany;rounded=0;" edge="1" parent="1" source="B4jJJsxU5oSL0_V1Stmv-1" target="B4jJJsxU5oSL0_V1Stmv-9">
          <mxGeometry width="100" height="100" relative="1" as="geometry">
            <mxPoint x="342" y="761" as="sourcePoint" />
            <mxPoint x="283" y="549" as="targetPoint" />
          </mxGeometry>
        </mxCell>
        <mxCell id="B4jJJsxU5oSL0_V1Stmv-14" value="" style="edgeStyle=entityRelationEdgeStyle;fontSize=12;html=1;endArrow=ERoneToMany;rounded=0;" edge="1" parent="1" source="B4jJJsxU5oSL0_V1Stmv-9" target="B4jJJsxU5oSL0_V1Stmv-3">
          <mxGeometry width="100" height="100" relative="1" as="geometry">
            <mxPoint x="342" y="761" as="sourcePoint" />
            <mxPoint x="442" y="661" as="targetPoint" />
          </mxGeometry>
        </mxCell>
        <mxCell id="B4jJJsxU5oSL0_V1Stmv-17" value="" style="edgeStyle=entityRelationEdgeStyle;fontSize=12;html=1;endArrow=ERmandOne;startArrow=ERmandOne;rounded=0;entryX=0;entryY=0.5;entryDx=0;entryDy=0;" edge="1" parent="1" source="B4jJJsxU5oSL0_V1Stmv-7" target="B4jJJsxU5oSL0_V1Stmv-10">
          <mxGeometry width="100" height="100" relative="1" as="geometry">
            <mxPoint x="342" y="761" as="sourcePoint" />
            <mxPoint x="442" y="661" as="targetPoint" />
          </mxGeometry>
        </mxCell>
        <mxCell id="B4jJJsxU5oSL0_V1Stmv-19" value="" style="edgeStyle=entityRelationEdgeStyle;fontSize=12;html=1;endArrow=ERoneToMany;rounded=0;" edge="1" parent="1" source="B4jJJsxU5oSL0_V1Stmv-5" target="B4jJJsxU5oSL0_V1Stmv-10">
          <mxGeometry width="100" height="100" relative="1" as="geometry">
            <mxPoint x="555" y="651" as="sourcePoint" />
            <mxPoint x="404" y="750" as="targetPoint" />
          </mxGeometry>
        </mxCell>
        <mxCell id="B4jJJsxU5oSL0_V1Stmv-20" value="OrderItem" style="swimlane;childLayout=stackLayout;horizontal=1;startSize=50;horizontalStack=0;rounded=1;fontSize=14;fontStyle=0;strokeWidth=2;resizeParent=0;resizeLast=1;shadow=0;dashed=0;align=center;arcSize=4;whiteSpace=wrap;html=1;fillStyle=solid;fillColor=#a0522d;strokeColor=#6D1F00;fontColor=#ffffff;" vertex="1" parent="1">
          <mxGeometry x="350" y="702.5" width="160" height="155" as="geometry" />
        </mxCell>
        <mxCell id="B4jJJsxU5oSL0_V1Stmv-21" value="+id(PK)&lt;div&gt;+order_id(FK)&lt;br&gt;&lt;div&gt;+product_id(FK)&lt;br&gt;&lt;div&gt;+quantity&lt;/div&gt;&lt;/div&gt;&lt;/div&gt;" style="align=left;strokeColor=none;fillColor=none;spacingLeft=4;spacingRight=4;fontSize=12;verticalAlign=top;resizable=0;rotatable=0;part=1;html=1;whiteSpace=wrap;" vertex="1" parent="B4jJJsxU5oSL0_V1Stmv-20">
          <mxGeometry y="50" width="160" height="105" as="geometry" />
        </mxCell>
      </root>
    </mxGraphModel>
  </diagram>
</mxfile>
